<svg width="200" height="160" viewBox="0 0 200 160" fill="none" xmlns="http://www.w3.org/2000/svg">
<path d="M176.353 42.0951C171.214 18.122 125.608 36.0857 106.366 44.3681C90.0401 51.3915 86.3387 41.0926 90.0402 36.7174C99.1299 25.97 128.091 9.64667 156.523 8.20183C184.98 6.75699 195.495 21.3081 197.818 29.6975C204.802 55.1084 180.084 79.0806 177.518 81.3616C174.953 83.6346 171.514 84.1407 172.386 83.2117C182.415 72.4749 192.209 55.9366 191.286 48.2938C190.959 45.5864 172.621 89.6219 78.842 109.053C76.9594 109.44 75.2025 107.389 76.5069 107.189C87.0588 105.592 116.443 96.0542 134.823 86.3164C178.524 63.1564 176.353 42.0951 176.353 42.0951Z" fill="black"/>
<path d="M84.7418 93.9446C102.617 89.3418 131.233 74.1792 130.099 67.2734C129.419 63.1605 124.517 61.279 111.109 66.6418C96.6297 72.4129 63.4462 92.0711 46.545 85.1696C34.01 80.0389 32.1889 66.7233 53.1825 47.1909C79.2134 22.9699 130.662 7.66909 130.914 6.84705C131.133 6.01792 131.25 5.06566 130.083 5.10286C126.834 5.2632 81.8116 17.6895 52.4524 36.3104C23.1592 54.8834 18.4238 69.7572 18.0638 68.5746C15.3386 59.5357 26.9255 47.1608 34.9561 40.8103C43.5277 34.017 45.3669 33.2738 45.0228 32.8831C44.0698 31.8272 41.5766 32.411 39.7714 33.7308C36.7432 35.9277 5.93087 50.8866 5.0628 74.7063C4.91579 78.6393 6.49791 114.105 84.7418 93.9446Z" fill="black"/>
<path d="M19.484 120.3H34.532V125.492H19.308C16.624 125.492 15.436 126.944 15.436 129.012C15.436 130.816 16.36 132.532 19.836 132.532H26.788C34.884 132.532 36.776 137.02 36.776 141.288C36.776 146.304 34.092 150 27.316 150H10.772V144.808H27.492C30.308 144.808 31.584 143.268 31.584 141.112C31.584 139.176 30.572 137.416 26.92 137.416H20.012C12.092 137.416 10.244 132.972 10.244 128.836C10.244 123.908 12.884 120.3 19.484 120.3ZM39.9495 126.768H43.1175V121.268H47.8255V126.768H54.2495V131.256H47.8255V142.256C47.8255 144.852 48.7495 145.732 50.9495 145.732H54.1615V150H49.9815C45.1855 150 43.1175 148.064 43.1175 141.992V131.256H39.9495V126.768ZM59.7055 126.768H73.6535C79.4615 126.768 81.7495 130.024 81.7495 134.424V145.336C81.7495 148.68 80.8695 150 76.9535 150H66.0855C60.5855 150 58.2975 147.316 58.2975 142.916C58.2975 138.692 60.4095 136.228 66.1295 136.228H77.1735V134.468C77.1735 132.664 76.1615 131.256 73.6095 131.256H59.7055V126.768ZM75.8975 145.468C76.8215 145.468 77.1735 145.116 77.1735 144.28V139.924H66.2175C63.7535 139.924 62.8735 140.936 62.8735 142.652C62.8735 144.368 63.7975 145.468 66.1295 145.468H75.8975ZM94.592 126.768H104.14V131.256H95.956C93.888 131.256 92.964 132.224 92.964 134.248V150H88.3V133.544C88.3 128.88 90.016 126.768 94.592 126.768ZM106.643 120.3H129.215V125.492H120.547V150H115.311V125.492H106.643V120.3ZM133.716 126.768H138.424V140.672C138.424 143.4 140.448 145.468 144.144 145.468H147.928C151.624 145.468 153.604 143.4 153.604 140.672V126.768H158.18V140.848C158.18 146.216 154.748 150 148.104 150H143.792C137.148 150 133.716 146.216 133.716 140.848V126.768ZM162.982 126.768H168.878L176.578 135.172L184.586 126.768H190.394L179.482 138.34L190.526 150H184.586L176.402 141.068L168.042 150H162.234L173.542 137.9L162.982 126.768Z" fill="black"/>
</svg>
